<?xml version="1.0" encoding="UTF-8"?><svg id="Layer_1" xmlns="http://www.w3.org/2000/svg" viewBox="0 0 32.2815 35"><defs><style>.cls-1{fill:#5c6578;}</style></defs><path class="cls-1" d="M28.8835,27.0145c0-.2814-.2283-.5097-.5097-.5097h-2.0389c-.2814,0-.5097,.2283-.5097,.5097s.2283,.5097,.5097,.5097h2.0389c.2814,0,.5097-.2283,.5097-.5097Z"/><path class="cls-1" d="M17.8398,25.8253h-3.3981c-.2814,0-.5097,.2283-.5097,.5097s.2283,.5097,.5097,.5097h3.3981c.2814,0,.5097-.2283,.5097-.5097s-.2283-.5097-.5097-.5097Z"/><path class="cls-1" d="M16.4805,29.9029h-.6796c-.2814,0-.5097,.2283-.5097,.5097s.2283,.5097,.5097,.5097h.6796c.2814,0,.5097-.2283,.5097-.5097s-.2283-.5097-.5097-.5097Z"/><path class="cls-1" d="M27.0145,29.2233c-.2814,0-.5097,.2283-.5097,.5097s.2283,.5097,.5097,.5097h.6796c.2814,0,.5097-.2283,.5097-.5097s-.2283-.5097-.5097-.5097h-.6796Z"/><path class="cls-1" d="M5.9466,26.5048H3.9077c-.2814,0-.5097,.2283-.5097,.5097s.2283,.5097,.5097,.5097h2.0389c.2814,0,.5097-.2283,.5097-.5097s-.2283-.5097-.5097-.5097Z"/><path class="cls-1" d="M5.267,29.2233h-.6796c-.2814,0-.5097,.2283-.5097,.5097s.2283,.5097,.5097,.5097h.6796c.2814,0,.5097-.2283,.5097-.5097s-.2283-.5097-.5097-.5097Z"/><path class="cls-1" d="M31.0922,11.2136h-2.3694c-.2814,0-.5097,.2283-.5097,.5097s.2283,.5097,.5097,.5097h2.3694c.0936,0,.1699,.0764,.1699,.1699v1.1893h-4.2476c-.2814,0-.5097,.2283-.5097,.5097s.2283,.5097,.5097,.5097h4.2476v2.3787h-5.6068c-.2814,0-.5097,.2283-.5097,.5097s.2283,.5097,.5097,.5097h5.6068v2.3786h-3.5679c-.2814,0-.5097,.2283-.5097,.5098s.2283,.5097,.5097,.5097h3.5679v11.3835c0,.0936-.0763,.1699-.1699,.1699h-7.6456v-14.7815c0-.2814-.2283-.5098-.5097-.5098s-.5097,.2283-.5097,.5098v.1699H9.8543v-2.3786h10.3641c.2814,0,.5097-.2283,.5097-.5098s-.2283-.5097-.5097-.5097H9.8543v-2.3786h7.568c.2814,0,.5097-.2283,.5097-.5097s-.2283-.5097-.5097-.5097h-7.568v-1.5292c0-.0936,.0764-.1699,.1699-.1699h5.3812c.2814,0,.5097-.2283,.5097-.5097s-.2283-.5097-.5097-.5097h-5.3812c-.6557,0-1.1893,.5336-1.1893,1.1893v1.1893H1.1893c-.6557,0-1.1893,.5336-1.1893,1.1893v20.3884c0,.6557,.5336,1.1893,1.1893,1.1893h7.6801c.0859,.5719,.5594,1.0194,1.1549,1.0194h12.233c.5955,0,1.069-.4475,1.1549-1.0194h7.6801c.6557,0,1.1893-.5336,1.1893-1.1893V12.4029c0-.6557-.5336-1.1893-1.1893-1.1893ZM1.0194,32.7913v-11.3835h3.5679c.2814,0,.5097-.2283,.5097-.5097s-.2283-.5098-.5097-.5098H1.0194v-2.3786H6.6262c.2814,0,.5097-.2283,.5097-.5097s-.2283-.5097-.5097-.5097H1.0194v-2.3787H6.6262c.2814,0,.5097-.2283,.5097-.5097s-.2283-.5097-.5097-.5097H1.0194v-1.1893c0-.0936,.0763-.1699,.1699-.1699h7.6456v20.7281H1.1893c-.0936,0-.1699-.0763-.1699-.1699Zm21.2379,1.1893H10.0242c-.0936,0-.1699-.0764-.1699-.1699v-14.4418h12.5729v14.4418c0,.0936-.0764,.1699-.1699,.1699Z"/><path class="cls-1" d="M22.9462,8.752c.6956,0,1.3413-.2635,1.8185-.7416,.4765-.4769,.738-1.1256,.7367-1.8265-.0013-1.4362-1.1263-2.5615-2.5645-2.5615h-.0034c-1.4349,0-2.5598,1.1252-2.5612,2.5612-.0013,.7012,.2602,1.3499,.7367,1.8268,.4772,.4781,1.123,.7416,1.8371,.7416Zm-.0126-4.1102h.0067c.8781,0,1.5411,.6633,1.5417,1.5437,.0007,.4284-.1553,.8207-.4387,1.1047-.5575,.5591-1.6307,.5837-2.2127,0-.2834-.2841-.4393-.6763-.4387-1.105,.0007-.8801,.6637-1.5434,1.5417-1.5434Z"/><path class="cls-1" d="M22.5466,15.7894l.3903,.4636,.3902-.4636c.16-.1902,3.925-4.6697,4.6962-5.9048,.8701-1.3914,1.0394-2.4327,1.0374-3.7607,0-3.3768-2.747-6.1238-6.1238-6.1238s-6.1238,2.7469-6.1238,6.1231c-.002,1.3287,.1672,2.3701,1.0374,3.7608,.7712,1.2358,4.5363,5.7153,4.6962,5.9055Zm.3903-14.77c2.8146,0,5.1044,2.2897,5.1044,5.105,.002,1.3492-.2203,2.1616-.882,3.2198-.594,.9504-3.2202,4.1215-4.2224,5.3228-1.0022-1.2013-3.6284-4.3724-4.2224-5.3234-.6617-1.0576-.884-1.8699-.8821-3.2198,0-2.8147,2.2897-5.1044,5.1044-5.1044Z"/></svg>