<?xml version="1.0" encoding="utf-8"?>
<!-- Generator: Adobe Illustrator 27.3.1, SVG Export Plug-In . SVG Version: 6.00 Build 0)  -->
<svg version="1.1" id="Layer_1" xmlns="http://www.w3.org/2000/svg" xmlns:xlink="http://www.w3.org/1999/xlink" x="0px" y="0px"
	 viewBox="0 0 36.8 35" style="enable-background:new 0 0 36.8 35;" xml:space="preserve">
<style type="text/css">
	.st0{fill:#5C6578;}
</style>
<g>
	<path class="st0" d="M28.4,8.6h-1.5V8.5c0-4.7-3.8-8.5-8.5-8.5c-3.8,0-7.2,2.6-8.2,6.3c-0.1,0.3,0.1,0.5,0.3,0.6
		C10.8,7,11,6.8,11.1,6.6C12,3.3,15,1,18.4,1c4.2,0,7.5,3.4,7.5,7.5v1.1h2.5c4.1,0,7.4,3.3,7.4,7.4v0.3c0,3.6-2.5,6.6-6,7.3h-1.4
		c-0.3,0-0.5,0.2-0.5,0.5c0,0.3,0.2,0.5,0.5,0.5l1.5,0c4-0.7,6.8-4.2,6.8-8.2V17C36.8,12.4,33,8.6,28.4,8.6z"/>
	<path class="st0" d="M8.4,24.6l-1.4,0c-3.3-0.4-6-3.7-6-7.3V17c0-3.9,3-7.1,6.9-7.4l0.4,0c2.3,0,3.6,0.6,5.3,2.3
		c0.2,0.2,0.5,0.2,0.7,0c0.2-0.2,0.2-0.5,0-0.7c-1.8-1.9-3.4-2.6-6-2.6c0,0,0,0,0,0l-0.4,0C3.4,9,0,12.6,0,17v0.3
		c0,4.1,3.1,7.8,6.9,8.3h1.4c0.3,0,0.5-0.2,0.5-0.5C8.9,24.9,8.6,24.6,8.4,24.6z"/>
	<path class="st0" d="M24.8,16.1H12c-0.8,0-1.5,0.7-1.5,1.5v16c0,0.8,0.7,1.5,1.5,1.5h12.7c0.8,0,1.5-0.7,1.5-1.5v-16
		C26.2,16.8,25.6,16.1,24.8,16.1z M12,17.1h12.7c0.3,0,0.5,0.2,0.5,0.5v4.2H11.6v-4.2C11.6,17.3,11.8,17.1,12,17.1z M20.4,34h-3.9
		v-3.1h3.9V34z M20.4,30h-3.9v-3.1h3.9V30z M15.5,26.9V30h-3.9v-3.1H15.5z M11.6,25.9v-3.1h3.9v3.1H11.6z M16.4,25.9v-3.1h3.9v3.1
		H16.4z M21.3,22.8h3.9v3.1h-3.9V22.8z M11.6,33.5v-2.6h3.9V34H12C11.8,34,11.6,33.8,11.6,33.5z M24.8,34h-3.4v-7.2h3.9v6.7
		C25.2,33.8,25,34,24.8,34z"/>
</g>
</svg>
