<?xml version="1.0" encoding="UTF-8"?><svg id="Layer_1" xmlns="http://www.w3.org/2000/svg" viewBox="0 0 36 34.2207"><defs><style>.cls-1{fill:#5c6578;stroke-width:0px;}</style></defs><path class="cls-1" d="M10.1807,9.1519c-.6294,0-1.2363.0948-1.8119.2635-.0129.0019-.0247.0067-.0374.0096-2.5936.7773-4.5007,3.1437-4.5966,5.9641-.0034.0189-.0017.0374-.0029.0566-.0014.0549-.0083.1085-.0083.1638,0,3.5605,2.8965,6.4575,6.457,6.4575,2.0643,0,3.9011-.9775,5.0842-2.4899.0203-.0197.0336-.0443.0503-.0672.8265-1.0852,1.3235-2.4343,1.3235-3.9005,0-3.5605-2.8975-6.4575-6.458-6.4575ZM8.618,20.8361c-.1788-.6536-.1961-1.3455-.0311-2.0192.0664-.2681-.0977-.5391-.3662-.6045-.2705-.0698-.5391.0986-.6045.3662-.1453.5919-.1706,1.1954-.1021,1.7875-1.6255-.9151-2.7343-2.6375-2.7836-4.6205.565-.3667,1.2148-.5941,1.9023-.645.2754-.02.4814-.2598.4619-.5352-.0205-.2764-.2617-.4868-.5361-.4619-.607.0447-1.1889.2068-1.7311.4542.3724-1.8992,1.7338-3.4433,3.5229-4.0833.5285.4217.9506.9672,1.215,1.6047.0801.1924.2656.3086.4619.3086.0645,0,.1289-.0122.1914-.0381.2549-.106.376-.3984.2705-.6533-.233-.562-.5698-1.0629-.9754-1.4994.219-.0269.4407-.045.6668-.045,1.7642,0,3.3309.8448,4.3292,2.1471-.2396.6319-.6298,1.2005-1.1564,1.6483-.21.1787-.2354.4941-.0566.7046.0986.1167.2393.1763.3809.1763.1143,0,.2295-.0391.3242-.1191.4629-.3937.8366-.8673,1.1278-1.3864.3233.6967.5089,1.4696.5089,2.2868,0,1.1494-.3591,2.2155-.9683,3.096-.6743-.0345-1.341-.2277-1.9291-.5906-.2344-.144-.542-.0723-.6885.1636-.1445.2349-.0713.543.1631.688.5167.3181,1.081.5277,1.6635.6449-.9736.9003-2.2709,1.4557-3.6986,1.4557-.5432,0-1.0671-.0823-1.5627-.2308Z"/><path class="cls-1" d="M12.915,15.6094c0-1.5073-1.2266-2.7339-2.7344-2.7339-1.5068,0-2.7334,1.2266-2.7334,2.7339s1.2266,2.7339,2.7334,2.7339c1.5078,0,2.7344-1.2266,2.7344-2.7339ZM10.1807,17.3433c-.9561,0-1.7334-.7778-1.7334-1.7339s.7773-1.7339,1.7334-1.7339,1.7344.7778,1.7344,1.7339-.7783,1.7339-1.7344,1.7339Z"/><path class="cls-1" d="M35.5,0h-1.4893c-1.0967,0-1.9893.8926-1.9893,1.9893v1.7339H3.2715L0,6.9951v20.5005h5.2129v2.9785h5.4678v-2.9785h2.7236v2.9785h14.4043v-2.9785h4.2129v6.2251c0,.2764.2236.5.5.5s.5-.2236.5-.5V1.9893c0-.5454.4434-.9893.9893-.9893h1.4893c.2764,0,.5-.2236.5-.5s-.2236-.5-.5-.5ZM9.6807,29.4741h-3.4678v-1.9785h3.4678v1.9785ZM14.4043,27.4956h3.4678v1.9785h-3.4678v-1.9785ZM22.3408,27.4956v1.9785h-3.4688v-1.9785h3.4688ZM26.8086,29.4741h-3.4678v-1.9785h3.4678v1.9785ZM1,26.4956V7.4092l2.6855-2.686h28.3359v21.7725H1Z"/><path class="cls-1" d="M34.7549,6.7021c-.2764,0-.5.2236-.5.5v3.7231c0,.2764.2236.5.5.5s.5-.2236.5-.5v-3.7231c0-.2764-.2236-.5-.5-.5Z"/><path class="cls-1" d="M34.7549,13.4043c-.2764,0-.5.2236-.5.5v5.2124c0,.2764.2236.5.5.5s.5-.2236.5-.5v-5.2124c0-.2764-.2236-.5-.5-.5Z"/><path class="cls-1" d="M28.0527,11.0137h-8.9355c-.2764,0-.5.2236-.5.5s.2236.5.5.5h8.9355c.2764,0,.5-.2236.5-.5s-.2236-.5-.5-.5Z"/><path class="cls-1" d="M28.0527,13.9922h-8.9355c-.2764,0-.5.2236-.5.5s.2236.5.5.5h8.9355c.2764,0,.5-.2236.5-.5s-.2236-.5-.5-.5Z"/><path class="cls-1" d="M22.8408,19.2051h-3.7236c-.2764,0-.5.2236-.5.5s.2236.5.5.5h3.7236c.2764,0,.5-.2236.5-.5s-.2236-.5-.5-.5Z"/><path class="cls-1" d="M28.0527,19.2051h-3.7227c-.2764,0-.5.2236-.5.5s.2236.5.5.5h3.7227c.2764,0,.5-.2236.5-.5s-.2236-.5-.5-.5Z"/><path class="cls-1" d="M3.4785,24.2617h-1.4893c-.2764,0-.5.2236-.5.5s.2236.5.5.5h1.4893c.2764,0,.5-.2236.5-.5s-.2236-.5-.5-.5Z"/><path class="cls-1" d="M31.0322,24.2617h-1.4893c-.2764,0-.5.2236-.5.5s.2236.5.5.5h1.4893c.2764,0,.5-.2236.5-.5s-.2236-.5-.5-.5Z"/><path class="cls-1" d="M29.543,6.9575h1.4893c.2764,0,.5-.2236.5-.5s-.2236-.5-.5-.5h-1.4893c-.2764,0-.5.2236-.5.5s.2236.5.5.5Z"/></svg>