<?xml version="1.0" encoding="UTF-8"?><svg id="Layer_1" xmlns="http://www.w3.org/2000/svg" viewBox="0 0 35 35"><defs><style>.cls-1{fill:#5c6578;}</style></defs><path class="cls-1" d="m35,19.3679c0-.4202-.2206-.7883-.5506-.9999l-5.3093-11.3088c.4957-.2405.8756-.7024.9765-1.2855.0803-.4656-.0259-.9345-.298-1.3201-.2728-.3859-.6789-.6428-1.1442-.7228-.4692-.079-.9345.0252-1.3207.298-.2417.1706-.4255.3981-.5542.6559l-5.3205-.9175c.029-.9421-.2919-1.8451-.9234-2.5501C19.9039.4898,19.0079.0594,18.0329.0056c-1.6979-.0933-3.1825.989-3.6786,2.5338l-5.3176-.9168c-.0351-.2859-.1321-.5618-.3027-.8036-.2721-.3856-.6783-.6424-1.1435-.7228-.961-.1613-1.8769.4815-2.0435,1.4422-.0803.4656.0259.9345.298,1.3201.1865.2646.4395.4628.7281.5907L.5736,16.2272C.2125,16.7779,0,17.4322,0,18.1321v.1138C0,20.1331,1.4813,21.7273,3.2334,21.7273l7.8534.011c1.9253,0,3.4923-1.5666,3.4923-3.4923v-.1138c0-.7114-.2162-1.3723-.583-1.9248L8.0076,3.4511c.1047-.0468.2068-.1003.3024-.1679.2417-.1708.4253-.3983.5539-.6559l5.3166.9166c-.0575,1.8699,1.3111,3.4727,3.1416,3.73v24.1896H6.5552c-.6557,0-1.1893.5336-1.1893,1.1893v2.3471h24.932v-2.3471c0-.6557-.5336-1.1893-1.1893-1.1893h-10.7669V7.2629c1.3857-.1963,2.5312-1.1707,2.9576-2.492l5.3283.9187c.0781.6223.4788,1.1639,1.0607,1.4096l-5.2558,11.1958c-.4032.1906-.6848.5981-.6848,1.0729v2.7184c0,.2529.0807.4866.2159.6796-.1352.193-.2159.4267-.2159.6796v2.7184c0,.6557.5336,1.1893,1.1893,1.1893h10.8738c.6557,0,1.1893-.5336,1.1893-1.1893v-2.7184c0-.2529-.0807-.4866-.2159-.6796.1352-.193.2159-.4267.2159-.6796v-2.7184Zm-5.7216,13.285v1.3277H6.3853v-1.3277c0-.0936.0763-.1699.1699-.1699h22.5533c.0936,0,.1699.0763.1699.1699Zm-6.5114-10.5665v-2.7184c0-.0936.0763-.1699.1699-.1699h10.8738c.0936,0,.1699.0763.1699.1699v2.7184c0,.0936-.0763.1699-.1699.1699h-10.8738c-.0936,0-.1699-.0763-.1699-.1699Zm.8461-3.9078l4.8105-10.2473,4.811,10.2473h-9.6215Zm-10.0534.0674c0,1.3635-1.109,2.4729-2.4722,2.4729l-7.8534-.011c-1.18,0-2.2147-1.1505-2.2147-2.4619v-.1138c0-1.2932,1.0101-2.3767,2.2831-2.4663l.1288-.005c.7745,0,1.2026.1872,1.7634.7705.1951.2028.5177.2094.7208.0143.2031-.1948.2097-.5177.0146-.7204-.7493-.7795-1.4495-1.0835-2.5154-1.0835h-.002l-.1646.0063c-.3163.0222-.6143.1-.9014.201L7.2898,4.3207l4.9425,10.5279c-.3608-.1264-.7422-.2088-1.1455-.2088h-.2588c-.1414-1.8281-1.6745-3.2726-3.5381-3.2726-1.2915,0-2.4822.7028-3.1074,1.8344-.1361.2466-.0471.5565.1998.6926.2462.1374.5562.0465.6922-.1994.446-.807,1.2948-1.3081,2.2154-1.3081,1.3944,0,2.5293,1.1349,2.5293,2.5296v.743h1.2676c1.3639,0,2.4729,1.1093,2.4729,2.4729v.1138ZM8.0272,1.9661c-.0338.1971-.142.369-.3053.4845-.1639.1155-.3624.1606-.5595.1261-.1971-.0338-.369-.1427-.4845-.306-.1155-.1636-.1599-.362-.1261-.5592.0624-.364.3796-.6215.7374-.6215.0425,0,.085.0033.1274.011.1971.0338.3697.1427.4845.306.1155.1633.1599.3617.1261.5588v.0003Zm9.6593,4.3226c-1.4515-.08-2.5678-1.3264-2.4875-2.7778.0777-1.4024,1.2431-2.4915,2.6308-2.4915.0491,0,.0982.0013.1473.0043.7028.0385,1.3493.3488,1.8192.8737.4699.5246.7075,1.2009.6683,1.9041-.0803,1.4515-1.3174,2.5651-2.7782,2.4872Zm10.2552-1.4269c.1274-.0903.2768-.1374.4301-.1374.0431,0,.0863.0037.1294.0113.1971.0338.369.1424.4845.306.1155.1633.1599.3617.1261.5588-.0697.4072-.4599.6819-.8654.6106-.4062-.07-.6803-.4579-.6106-.8648.0338-.1971.1427-.3693.306-.4845Zm6.0389,21.3023c0,.0936-.0763.1699-.1699.1699h-10.8738c-.0936,0-.1699-.0763-.1699-.1699v-2.7184c0-.0936.0763-.1699.1699-.1699h10.8738c.0936,0,.1699.0763.1699.1699v2.7184Z"/><rect class="cls-1" x="24.0386" y="20.2174" width="1.3592" height="1.0194"/><rect class="cls-1" x="26.7571" y="20.2174" width="1.3592" height="1.0194"/><rect class="cls-1" x="24.0386" y="24.2951" width="1.3592" height="1.0194"/><rect class="cls-1" x="26.7571" y="24.2951" width="1.3592" height="1.0194"/></svg>